# xmcd
#
# Track frame offsets: 
#        150
#        110775
#        156900
#        172500
#        205275
#
# Disc length: 3264 seconds
#
# Revision: 0
# Processed by: cddbd v1.5.2PL0 Copyright (c) Steve Scherf et al.
# Submitted via: ExactAudioCopy v1.0b3
#
DISCID=3a0cbe05
DTITLE=Suk, Josef - Prag and Pohádka-Märchensuite (Francis, Nordwestdeut
DTITLE=sche Philharmonie)
DYEAR=1988
DGENRE=Symphonische Dichtung
TTITLE0=Praga - Symphonische Dichtung op. 26
TTITLE1=Märchensuite 'Pohádka' op. 16 - 1. Liebe und Kummer der Königs
TTITLE1=kinder
TTITLE2=Märchensuite 'Pohádka' op. 16 - 2. Intermezzo - Volkstanz
TTITLE3=Märchensuite 'Pohádka' op. 16 - 3. Intermezzo - Begräbnismusik
TTITLE4=Märchensuite 'Pohádka' op. 16 - 4. Königin Runas Fluch - Trium
TTITLE4=ph der Liebe
EXTD=
EXTT0=
EXTT1=
EXTT2=
EXTT3=
EXTT4=
PLAYORDER=
